<svg xmlns="http://www.w3.org/2000/svg" width="23.938" height="15.683" viewBox="0 0 23.938 15.683"><defs><style>.a{fill:#fab446;}.b{fill:#73af00;}.c{fill:#f5f5f5;}.d{fill:#41479b;}</style></defs><g transform="translate(0 0)"><path class="a" d="M22.145,88.276H1.793A1.793,1.793,0,0,0,0,90.069V93.5H23.938V90.069A1.793,1.793,0,0,0,22.145,88.276Z" transform="translate(0 -88.276)"/><path class="b" d="M0,315.343a1.793,1.793,0,0,0,1.793,1.793H22.145a1.793,1.793,0,0,0,1.793-1.793v-3.435H0Z" transform="translate(0 -301.453)"/><rect class="c" width="23.938" height="5.227" transform="translate(0 5.228)"/><g transform="translate(9.75 5.623)"><path class="d" d="M210.77,212.989a2.218,2.218,0,1,1,2.218-2.218A2.221,2.221,0,0,1,210.77,212.989Zm0-4.024a1.806,1.806,0,1,0,1.806,1.806A1.808,1.808,0,0,0,210.77,208.965Z" transform="translate(-208.552 -208.552)"/><circle class="d" cx="0.251" cy="0.251" r="0.251" transform="translate(1.967 1.967)"/><path class="d" d="M214.978,253.953l-.639.065-1.373-.065v-.075l1.373-.065.639.065Z" transform="translate(-212.76 -251.697)"/><path class="d" d="M256,253.953l.639.065,1.373-.065v-.075l-1.373-.065-.639.065Z" transform="translate(-253.782 -251.697)"/><path class="d" d="M253.878,214.978l-.065-.639.065-1.373h.075l.065,1.373-.065.639Z" transform="translate(-251.697 -212.76)"/><path class="d" d="M253.878,256l-.065.639.065,1.373h.075l.065-1.373-.065-.639Z" transform="translate(-251.697 -253.782)"/><path class="d" d="M226.423,226.476l-.5-.406L225,225.053l.053-.053,1.016.925.406.5Z" transform="translate(-224.231 -224.231)"/><path class="d" d="M255.43,255.483l.406.5,1.016.925.053-.053-.925-1.016-.5-.406Z" transform="translate(-253.238 -253.238)"/><path class="d" d="M255.43,226.423l.406-.5,1.016-.925.053.053-.925,1.016-.5.406Z" transform="translate(-253.238 -224.231)"/><path class="d" d="M226.423,255.43l-.5.406L225,256.853l.053.053,1.016-.925.406-.5Z" transform="translate(-224.231 -253.238)"/><path class="d" d="M217.821,255.324l-.566.3-1.293.466-.029-.07,1.244-.585.615-.185Z" transform="translate(-215.588 -253.071)"/><path class="d" d="M255.72,239.626l.615-.185,1.244-.585-.029-.07-1.293.466-.566.3Z" transform="translate(-253.487 -237.372)"/><path class="d" d="M239.556,217.821l-.3-.566-.466-1.293.07-.029.585,1.244.185.615Z" transform="translate(-237.372 -215.588)"/><path class="d" d="M255.254,255.72l.185.615.585,1.244.07-.029-.466-1.293-.3-.566Z" transform="translate(-253.071 -253.487)"/><path class="d" d="M217.792,239.626l-.615-.185-1.244-.585.029-.07,1.293.466.566.3Z" transform="translate(-215.588 -237.372)"/><path class="d" d="M255.691,255.324l.566.3,1.293.466.029-.07-1.244-.585-.615-.185Z" transform="translate(-253.487 -253.071)"/><path class="d" d="M255.254,217.792l.185-.615.585-1.244.07.029-.466,1.293-.3.566Z" transform="translate(-253.071 -215.588)"/><path class="d" d="M239.556,255.691l-.3.566-.466,1.293.07.029.585-1.244.185-.615Z" transform="translate(-237.372 -253.487)"/></g><circle class="c" cx="0.339" cy="0.339" r="0.339" transform="translate(11.63 7.502)"/><circle class="d" cx="0.203" cy="0.203" r="0.203" transform="translate(11.765 7.638)"/></g></svg>