<svg xmlns="http://www.w3.org/2000/svg" width="33" height="32" viewBox="0 0 33 32" fill="none">
<g clip-path="url(#clip0_3807_182)">
<path d="M16.8719 25.345C16.5733 25.345 16.2848 25.2365 16.0601 25.0397C15.2117 24.2981 14.3933 23.6043 13.6723 22.9853C11.805 21.4964 10.0609 19.8593 8.45674 18.09C7.16008 16.6943 6.41756 14.8733 6.36863 12.9689C6.3405 11.3178 6.93562 9.71661 8.03537 8.48464C8.5691 7.90324 9.21873 7.44012 9.94238 7.12514C10.666 6.81017 11.4477 6.65032 12.2369 6.6559C13.4345 6.65073 14.5983 7.05254 15.5376 7.79547C16.0464 8.19223 16.4958 8.65986 16.8719 9.18411C17.2477 8.65821 17.6971 8.18898 18.2063 7.79079C19.1462 7.04954 20.31 6.6494 21.507 6.6559C22.2962 6.65032 23.0778 6.81017 23.8015 7.12514C24.5251 7.44012 25.1748 7.90324 25.7085 8.48464C26.8082 9.71661 27.4034 11.3178 27.3752 12.9689C27.327 14.8717 26.5862 16.6916 25.2918 18.0871C23.688 19.8565 21.9441 21.4936 20.0771 22.9825C19.3543 23.5986 18.5349 24.2934 17.6838 25.0425C17.459 25.2392 17.1706 25.3477 16.8719 25.3478V25.345Z" stroke="#2E2E2E" stroke-width="1.4"/>
</g>
<defs>
<clipPath id="clip0_3807_182">
<rect width="22.3175" height="20" fill="white" transform="translate(5.7124 6)"/>
</clipPath>
</defs>
</svg>