<svg xmlns="http://www.w3.org/2000/svg" width="305.559" height="214.01" viewBox="0 0 305.559 214.01">
  <g id="Group_11417" data-name="Group 11417" transform="translate(-708 -376.989)">
    <g id="Group_11360" data-name="Group 11360">
      <g id="Group_1147" data-name="Group 1147" transform="translate(10.779)">
        <path id="Path_2797" data-name="Path 2797" d="M3983.39-1116.3c58.1.964,88.039-4.629,118.174-3.407s81.8-15.877,55.966-36.447-57.9-15.363-44.988-44.547,29.13-33.041,33.938-47.182,1.865-45.382-30.136-41.975c-8.032.855-19.977,2.775-19.977,2.775s-22.07,6.586-36.419,12.652c-19.158,8.1-32.576,16.2-60.773,2.957s-82.227-37.283-108.56-24.427-26.835,42.039-9.615,61.324-5.74,42.04-12.413,51.425-26.261,46.732,22.027,57.853S3925.289-1117.263,3983.39-1116.3Z" transform="translate(-3161.76 1676.557)" fill="#f1d1b1" opacity="0.11"/>
        <path id="Path_2798" data-name="Path 2798" d="M2701.813-1335.474s-51.208,11.193-61.491-39.175,12.1-47.15,23.3-54.565,11.192-3.148,14.9-11.613,15.771-51.246,55.965-70.446,95.14-15.88,103.535,23.3,16.789,61.631,27.982,65.339,38.756,8.884,41.064,26.094,16.719,42.043-13.082,45.261-94.161,6.016-97.449,10.7-5.107,5.107-5.107,5.107-34.558,28.892-56.944,18.189S2701.813-1335.474,2701.813-1335.474Z" transform="translate(-1914.175 1905.906)" fill="#f1d1b1" opacity="0.14"/>
        <g id="Group_1116" data-name="Group 1116" transform="translate(-3145.016 1699.279)">
          <path id="Path_2787" data-name="Path 2787" d="M3945.531-1220.74v60.287l45.733-10.424v-56.648Z" transform="translate(49.581 12.174)" fill="#9a8776"/>
          <path id="Path_2788" data-name="Path 2788" d="M3926.577-1167.543l58.465,5.179v-60.282l-58.465-3.953Z" transform="translate(10.376 13.973)" fill="#a78e78"/>
          <path id="Path_2789" data-name="Path 2789" d="M3921.234-1229.369l41.476-4.225,22.346,13.382-47.832,7.347Z" transform="translate(0 0.39)" fill="#c4a081"/>
          <path id="Path_2790" data-name="Path 2790" d="M3924.965-1221.824l47.779-7.246,55.5,4.525-47.326,6.969Z" transform="translate(12.68 9.176)" fill="#847465"/>
          <path id="Path_2791" data-name="Path 2791" d="M3921.744-1215.72l14.49-11,57.877,4.64-16.354,12.129Z" transform="translate(0.99 13.997)" fill="#c1a78f"/>
          <path id="Path_2792" data-name="Path 2792" d="M3992.267-1227.525l18.172,9.994-46.336,9.086-17.853-12.129Z" transform="translate(48.578 12.174)" fill="#c1a78f"/>
          <path id="Path_2793" data-name="Path 2793" d="M3942.543-1219.894l17.854-13.9,51.592,2.432-12.778,16.241Z" transform="translate(41.382)" fill="#c4a081"/>
        </g>
        <g id="Group_1146" data-name="Group 1146" transform="matrix(0.985, -0.174, 0.174, 0.985, 37.687, 168.277)">
          <g id="Path_2764" data-name="Path 2764" transform="translate(793.01 414.113)">
            <path id="Path_2774" data-name="Path 2774" d="M143.24,53.9l22.545-2.4-10.741,7.132-4.542-.706-.581-2.172-2.383,1.336Z" transform="translate(-143.24 -51.5)" fill="#f1a787"/>
          </g>
          <g id="Path_2765" data-name="Path 2765" transform="translate(799.209 414.285)">
            <path id="Path_2775" data-name="Path 2775" d="M177.06,56.106,191.8,52.44l-14.4,6.151Z" transform="translate(-177.06 -52.44)" fill="#e39b7c"/>
          </g>
        </g>
        <g id="Group_1110" data-name="Group 1110" transform="translate(819.468 445.705) rotate(-16)">
          <g id="Ellipse_18455" data-name="Ellipse 18455" opacity="0.16">
            <circle id="Ellipse_18462" data-name="Ellipse 18462" cx="14.182" cy="14.182" r="14.182" fill="#f1a787"/>
          </g>
          <g id="noun_Love_3255220" data-name="noun Love 3255220" transform="translate(7.507 6.353)">
            <g id="Group_1109" data-name="Group 1109">
              <g id="Path_2767" data-name="Path 2767">
                <path id="Path_2783" data-name="Path 2783" d="M464.124,220.831l-7.519,4.361a.879.879,0,0,1-1.2-.323.569.569,0,0,1-.043-.081l-3.525-7.951a4.383,4.383,0,0,1,7.913-3.773l.065.135.13-.065a4.382,4.382,0,1,1,4.183,7.7Z" transform="translate(-451.406 -210.566)" fill="#f1a787"/>
              </g>
            </g>
          </g>
        </g>
        <g id="Group_1111" data-name="Group 1111" transform="translate(860.926 424.855) rotate(25)">
          <g id="noun_Love_3255220-2" data-name="noun Love 3255220-2" transform="translate(3.384 2.896)">
            <g id="Group_1109-2" data-name="Group 1109-2">
              <g id="Path_2767-2" data-name="Path 2767-2">
                <path id="Path_2784" data-name="Path 2784" d="M589.118,90.524l-3.723,2.168a.414.414,0,0,1-.6-.157l-.025-.041L583.02,88.53a2.184,2.184,0,0,1,3.938-1.878l.033.066.066-.033a2.184,2.184,0,0,1,2.068,3.835Z" transform="translate(-582.851 -85.504)" fill="#f1a787"/>
              </g>
            </g>
          </g>
        </g>
        <g id="Group_1111-2" data-name="Group 1111" transform="matrix(0.574, -0.819, 0.819, 0.574, 804.837, 433.125)">
          <g id="noun_Love_3255220-2-2" data-name="noun Love 3255220-2" transform="translate(3.384 2.896)">
            <g id="Group_1109-2-2" data-name="Group 1109-2">
              <g id="Path_2767-2-2" data-name="Path 2767-2">
                <path id="Path_2784-2" data-name="Path 2784" d="M585.067,87.279l-1.316.766a.146.146,0,0,1-.211-.056l-.009-.015-.62-1.4a.772.772,0,0,1,1.392-.664l.012.023.023-.012a.772.772,0,0,1,.731,1.356Z" transform="translate(-582.851 -85.504)" fill="#f1a787"/>
              </g>
            </g>
          </g>
        </g>
        <path id="Path_2800" data-name="Path 2800" d="M26.052,5.8s-16.028-3.363-16.028.018,2.7,15.4-30.21,5.709" transform="translate(889.598 466.803) rotate(135)" fill="none" stroke="#f1d0ad" stroke-width="1.4" stroke-dasharray="2 2"/>
      </g>
    </g>
    <path id="Path_2816" data-name="Path 2816" d="M48.707,16.327s-11.877-5.764-18.69,5.15S18.944,40.464,8.821,41.956s-12.111-3.531-22.5-15.739" transform="matrix(0.105, 0.995, -0.995, 0.105, 812.521, 402.734)" fill="none" stroke="#f1d0ad" stroke-width="1.4" stroke-dasharray="2 2"/>
  </g>
</svg>
