<svg xmlns="http://www.w3.org/2000/svg" width="33" height="32" viewBox="0 0 33 32" fill="none">
<g clip-path="url(#clip0_3807_183)">
<path d="M4.50488 6.76709H8.15335L10.5525 20.2919H24.8394L27.8033 8.7614H11.7024" stroke="#2E2E2E" stroke-width="1.4"/>
<path d="M12.7236 25.2328C13.2656 25.2328 13.7049 24.7934 13.7049 24.2514C13.7049 23.7094 13.2656 23.27 12.7236 23.27C12.1816 23.27 11.7422 23.7094 11.7422 24.2514C11.7422 24.7934 12.1816 25.2328 12.7236 25.2328Z" stroke="#2E2E2E" stroke-width="1.4"/>
<path d="M22.3373 25.2328C22.8793 25.2328 23.3187 24.7934 23.3187 24.2514C23.3187 23.7094 22.8793 23.27 22.3373 23.27C21.7953 23.27 21.356 23.7094 21.356 24.2514C21.356 24.7934 21.7953 25.2328 22.3373 25.2328Z" stroke="#2E2E2E" stroke-width="1.4"/>
</g>
<defs>
<clipPath id="clip0_3807_183">
<rect width="24.287" height="20" fill="white" transform="translate(4.50488 6)"/>
</clipPath>
</defs>
</svg>