<svg xmlns="http://www.w3.org/2000/svg" width="33" height="32" viewBox="0 0 33 32" fill="none">
<g clip-path="url(#clip0_3807_145)">
<path d="M8.09788 24.4436H6.25718C6.25718 24.4436 5.60766 24.5206 5.62282 23.5333C5.63798 22.5459 5.73172 11.9488 5.73172 11.9488C5.73172 11.9488 5.53281 10.8221 7.25313 10.9195C7.79445 10.9499 11.1005 10.9195 11.1005 10.9195L12.7731 14.4825L14.5208 10.9195H17.7846C17.7846 10.9195 19.1688 10.7918 19.1114 12.4536C19.0541 14.1155 19.1114 16.5469 19.1114 16.5469C19.0986 16.6589 19.111 16.7723 19.1463 16.8794C19.1817 16.9864 19.2395 17.0846 19.3165 17.1669C19.3936 17.2493 19.487 17.3143 19.5914 17.3567C19.6959 17.3992 19.8087 17.4186 19.9213 17.4133C20.7874 17.3949 25.5386 17.4133 25.5386 17.4133L26.9923 19.4818V23.6522C27.0187 23.7622 27.0182 23.8772 26.9902 23.9868C26.9622 24.0965 26.9076 24.1974 26.8316 24.2813C26.7556 24.3651 26.6599 24.4292 26.5535 24.4679C26.4472 24.5066 26.3336 24.5188 26.2216 24.5033C25.2721 24.525 24.5003 24.5033 24.5003 24.5033L8.09788 24.4436Z" stroke="#2E2E2E" stroke-width="1.2"/>
<path d="M25.4899 17.383L23.4517 13.0143C23.4517 13.0143 23.2935 12.4947 22.4632 12.473C21.6329 12.4514 19.3594 12.473 19.3594 12.473" stroke="#2E2E2E" stroke-width="1.2"/>
<path d="M11.0901 27.9991C12.8078 27.9991 14.2003 26.6066 14.2003 24.889C14.2003 23.1713 12.8078 21.7788 11.0901 21.7788C9.37244 21.7788 7.97998 23.1713 7.97998 24.889C7.97998 26.6066 9.37244 27.9991 11.0901 27.9991Z" fill="white"/>
<path d="M11.0892 27.2418C12.3884 27.2418 13.4416 26.1887 13.4416 24.8895C13.4416 23.5903 12.3884 22.5371 11.0892 22.5371C9.79001 22.5371 8.73682 23.5903 8.73682 24.8895C8.73682 26.1887 9.79001 27.2418 11.0892 27.2418Z" stroke="#2E2E2E" stroke-width="1.2"/>
<path d="M22.1482 27.9991C23.8659 27.9991 25.2584 26.6066 25.2584 24.889C25.2584 23.1713 23.8659 21.7788 22.1482 21.7788C20.4305 21.7788 19.0381 23.1713 19.0381 24.889C19.0381 26.6066 20.4305 27.9991 22.1482 27.9991Z" fill="white"/>
<path d="M22.1473 27.2418C23.4465 27.2418 24.4997 26.1887 24.4997 24.8895C24.4997 23.5903 23.4465 22.5371 22.1473 22.5371C20.8481 22.5371 19.7949 23.5903 19.7949 24.8895C19.7949 26.1887 20.8481 27.2418 22.1473 27.2418Z" stroke="#2E2E2E" stroke-width="1.2"/>
<path d="M12.828 14.0838C12.828 14.0838 15.6896 8.94716 15.6507 7.31468C15.6488 6.95664 15.5726 6.6029 15.4266 6.27601C15.2805 5.94912 15.0683 5.65623 14.8028 5.416C14.5373 5.17577 14.225 4.99332 13.8852 4.88054C13.5454 4.76776 13.1845 4.72726 12.828 4.76108C12.1493 4.76971 11.5001 5.04006 11.016 5.5159C10.5319 5.99174 10.2498 6.63617 10.2295 7.31468C10.2262 8.66028 12.828 14.0838 12.828 14.0838Z" stroke="#2E2E2E" stroke-width="1.2"/>
<path d="M12.9848 8.28109C13.4858 8.28109 13.892 8.01015 13.892 7.67594C13.892 7.34173 13.4858 7.0708 12.9848 7.0708C12.4838 7.0708 12.0776 7.34173 12.0776 7.67594C12.0776 8.01015 12.4838 8.28109 12.9848 8.28109Z" fill="white"/>
<path d="M12.9839 7.82823C13.0664 7.82823 13.1333 7.75989 13.1333 7.67559C13.1333 7.59129 13.0664 7.52295 12.9839 7.52295C12.9014 7.52295 12.8345 7.59129 12.8345 7.67559C12.8345 7.75989 12.9014 7.82823 12.9839 7.82823Z" stroke="#2E2E2E" stroke-width="1.6"/>
</g>
<defs>
<clipPath id="clip0_3807_145">
<rect width="22.9044" height="24" fill="white" transform="translate(4.86572 4)"/>
</clipPath>
</defs>
</svg>